HIERARCHY
ROOT Hips
{
  OFFSET 179.979 97.3047 303.174
  CHANNELS 6 Xposition Yposition Zposition Zrotation Xrotation Yrotation
  JOINT Spine
  {
    OFFSET 0.000859786 9.92346 -1.22733
    CHANNELS 3 Zrotation Xrotation Yrotation
    JOINT Spine1
    {
      OFFSET 0 11.732 0
      CHANNELS 3 Zrotation Xrotation Yrotation
      JOINT Spine2
      {
        OFFSET 0 13.4588 0
        CHANNELS 3 Zrotation Xrotation Yrotation
        JOINT Neck
        {
          OFFSET 2.54812e-05 15.0278 0.877907
          CHANNELS 3 Zrotation Xrotation Yrotation
          JOINT Head
          {
            OFFSET 0 10.3218 3.14243
            CHANNELS 3 Zrotation Xrotation Yrotation
            End Site
            {
              OFFSET 0 0 0
            }
          }
        }
        JOINT LeftShoulder
        {
          OFFSET 6.10582 9.10629 0.757062
          CHANNELS 3 Zrotation Xrotation Yrotation
          JOINT LeftArm
          {
            OFFSET 0 12.9223 0
            CHANNELS 3 Zrotation Xrotation Yrotation
            JOINT LeftForeArm
            {
              OFFSET 0 27.4047 0
              CHANNELS 3 Zrotation Xrotation Yrotation
              JOINT LeftHand
              {
                OFFSET -1.28204e-05 27.6145 0
                CHANNELS 3 Zrotation Xrotation Yrotation
                End Site
                {
                  OFFSET 0 0 0
                }
              }
            }
          }
        }
        JOINT RightShoulder
        {
          OFFSET -6.1057 9.10638 0.757076
          CHANNELS 3 Zrotation Xrotation Yrotation
          JOINT RightArm
          {
            OFFSET 0 12.9223 0
            CHANNELS 3 Zrotation Xrotation Yrotation
            JOINT RightForeArm
            {
              OFFSET 0 27.4047 0
              CHANNELS 3 Zrotation Xrotation Yrotation
              JOINT RightHand
              {
                OFFSET 1.28428e-05 27.6145 1.44975e-05
                CHANNELS 3 Zrotation Xrotation Yrotation
                End Site
                {
                  OFFSET 0 0 0
                }
              }
            }
          }
        }
      }
    }
  }
  JOINT LeftUpLeg
  {
    OFFSET 9.12387 -6.65719 -0.0554031
    CHANNELS 3 Zrotation Xrotation Yrotation
    JOINT LeftLeg
    {
      OFFSET 0 40.5994 0
      CHANNELS 3 Zrotation Xrotation Yrotation
      JOINT LeftFoot
      {
        OFFSET 0 42.099 0
        CHANNELS 3 Zrotation Xrotation Yrotation
        JOINT LeftToeBase
        {
          OFFSET 0 15.7216 0
          CHANNELS 3 Zrotation Xrotation Yrotation
          End Site
          {
            OFFSET 0 0 0
          }
        }
      }
    }
  }
  JOINT RightUpLeg
  {
    OFFSET -9.12503 -6.6556 -0.0553527
    CHANNELS 3 Zrotation Xrotation Yrotation
    JOINT RightLeg
    {
      OFFSET 0 40.5994 0
      CHANNELS 3 Zrotation Xrotation Yrotation
      JOINT RightFoot
      {
        OFFSET 0 42.099 0
        CHANNELS 3 Zrotation Xrotation Yrotation
        JOINT RightToeBase
        {
          OFFSET 0 15.7216 0
          CHANNELS 3 Zrotation Xrotation Yrotation
          End Site
          {
            OFFSET 0 0 0
          }
        }
      }
    }
  }
}
MOTION
Frames:	8
Frame Time:	0.0333333
92.6301 85.6057 529.228 -26.4138 -9.21989 96.5923 -0.451641 -3.58064 3.15382 -1.1003 6.75656 6.46133 -1.86226 13.3083 6.59416 -5.10622 -17.3792 12.5092 -19.707 -25.9061 11.6346 -105.849 -20.2933 88.9402 22.5929 61.3772 26.5615 64.8174 -18.464 -0.322516 -3.97682 -2.158 37.5511 103.295 -3.39692 -92.7311 -12.5588 57.7519 -7.5309 -88.749 -1.33944 0.347878 -23.5574 -11.4217 -18.4364 164.225 65.0224 8.37508 6.31009 -68.9198 15.9992 17.1303 82.341 11.6352 -0.965272 26.367 -3.60229 177.372 52.6777 -23.4718 -176.586 -50.639 174.387 26.6421 28.8099 3.21348 0.963533 26.3682 3.55537 
95.4723 85.8567 529.39 -21.8568 -14.4148 103.976 1.25442 -3.26929 2.48212 2.36131 7.45461 4.5928 1.8176 14.0275 4.69554 1.2512 -14.7009 17.5403 -25.8207 -27.0742 17.204 -104.36 -19.6642 89.1643 19.2192 65.2349 21.4453 68.9963 -17.992 -0.192691 -1.85097 -3.72104 46.0656 107.634 -4.38718 -92.95 -3.95252 62.384 -9.3254 -78.7372 -2.70299 0.473659 -25.8964 -30.1768 -18.2281 167.16 59.4585 6.85837 10.6167 -69.7817 19.1851 32.5027 84.5403 -1.20861 -0.965272 26.367 -3.60229 175.613 57.3627 -21.7764 -176.21 -51.9541 174.883 27.1136 30.9733 2.93308 0.963533 26.3682 3.55537 
97.8825 86.4302 529.294 -16.0993 -18.7332 111.408 2.5712 -2.64831 1.43847 5.08438 8.68435 2.06524 4.83864 15.2745 2.11873 13.0708 -14.2064 19.4185 -25.0339 -31.518 19.9946 -99.9029 -19.6222 89.3746 8.88258 70.2521 11.4015 80.2121 -6.6633 0.546974 1.9385 -4.83693 43.5465 107.799 -3.16329 -93.271 3.80668 60.0017 -10.9379 -73.995 -3.32518 0.522705 -4.76394 -24.7547 3.5863 169.261 53.1935 9.77423 13.9729 -69.5962 21.704 53.7562 86.5959 -22.1454 -0.965272 26.367 -3.60229 175.138 61.5385 -18.8773 -175.326 -55.5074 178.971 20.3848 40.8769 0.746832 0.963533 26.3682 3.55537 
100.246 87.634 528.842 -11.1222 -21.3177 116.957 3.69215 -2.03492 1.06596 7.39178 9.88013 0.91852 7.28201 16.4739 0.946882 19.0542 -14.6546 16.7646 -18.9521 -39.0165 17.4499 -96.9528 -19.4343 89.5357 9.78248 69.3286 -0.601282 92.9426 0.109346 1.17116 3.24736 -7.70801 31.9354 106.791 -4.90337 -92.7418 14.1501 52.8131 -12.1573 -81.9483 -0.588206 0.383652 -0.668109 -11.1903 19.6334 171.697 46.7925 13.851 12.4963 -67.7032 19.5681 82.2321 87.4484 -51.3764 -0.965272 26.367 -3.60229 177.106 66.178 -17.3369 -173.868 -60.4726 -172.15 5.66977 54.0548 3.95599 0.963533 26.3682 3.55537 
102.477 89.2323 528.124 -7.79793 -22.0637 120.537 4.23829 -1.5953 0.894703 8.52826 10.734 0.359186 8.48534 17.3286 0.373337 22.8707 -12.5649 12.3217 -16.2668 -47.5154 13.4663 -93.3367 -17.3972 89.9461 12.7827 63.7807 -14.31 105.104 2.79713 1.68059 5.57786 -16.9158 19.7192 105.474 -9.21759 -91.623 18.4118 46.6074 -10.6952 -89.8785 -0.139089 0.299508 -7.93833 -16.8587 -0.742814 174.256 40.529 15.284 10.3633 -63.6694 17.3449 101.158 87.8295 -70.9807 -0.965272 26.367 -3.60229 -178.347 70.0923 -19.9969 -171.146 -66.1934 -162.707 -9.26319 65.8045 15.6164 0.963533 26.3682 3.55537 
104.516 91.1582 526.974 -5.77659 -22.4215 122.133 4.56726 -1.19319 0.335567 9.26913 11.4822 -0.91157 9.3799 18.0761 -0.935831 22.5554 -13.5022 11.0976 -16.5191 -46.0784 12.0658 -90.7321 -16.2827 90.111 9.03157 52.5551 -19.7736 112.393 3.76026 1.97535 -0.287338 -37.3804 -6.46133 101.327 -10.4445 -91.1631 20.1117 40.7657 -12.4672 -94.2788 -0.546714 0.264882 -11.169 -20.3729 -3.5076 177.657 34.4496 13.862 8.21694 -57.5174 15.6895 102.063 88.3361 -72.0691 -0.965272 26.367 -3.60229 -168.288 74.7057 -28.2766 -167.969 -71.7569 -157.452 -19.6461 69.5436 22.8518 0.963533 26.3682 3.55537 
106.547 93.4069 525.197 -5.68654 -22.9287 121.855 4.81149 -1.16897 -0.290301 9.83133 11.4663 -2.25715 10.105 18.0558 -2.32269 16.8161 -13.4083 11.7822 -17.2007 -41.7321 12.2092 -90.0077 -16.8998 90.0427 4.24246 38.455 -22.11 110.829 4.10062 1.92777 4.85694 -56.3189 -11.4184 98.148 -9.45869 -91.1953 19.7707 31.4041 -15.0732 -96.1154 -0.180985 0.233884 -10.1941 -18.4316 7.52123 -179.208 28.9569 11.2241 5.68805 -49.1305 14.2932 36.6867 87.737 -6.57292 -0.965272 26.367 -3.60229 -149.672 79.3364 -43.6411 -163.84 -77.0657 -152.652 -20.6038 67.7349 22.2327 0.963533 26.3682 3.55537 
108.86 95.7108 523.118 -6.88065 -22.6265 120.479 4.80804 -1.46191 -0.703949 9.8455 10.8461 -3.05915 10.215 17.4312 -3.14524 11.339 -10.1164 13.9414 -20.8062 -36.9591 14.1307 -88.525 -18.3488 89.914 3.24475 26.3185 -20.1394 98.1322 0.80098 1.37151 49.0146 -48.2209 42.0053 95.9707 -7.87681 -91.317 19.7948 22.5938 -17.8682 -95.5375 0.288539 0.225987 -10.8599 -13.4263 2.78561 -176.785 22.8786 8.15649 1.90479 -38.4624 13.1402 11.0022 83.547 19.3729 -0.965272 26.367 -3.60229 -126.569 81.4402 -61.7335 -151.537 -82.9614 -139.232 -21.2592 65.3225 21.6963 0.963533 26.3682 3.55537 
